<mxfile host="app.diagrams.net" modified="2024-06-24T09:15:12.899Z" agent="Mozilla/5.0 (Macintosh; Intel Mac OS X 10_15_7) AppleWebKit/605.1.15 (KHTML, like Gecko) Version/17.5 Safari/605.1.15" version="24.6.2" etag="YTwHpROgqfidPFxFCzd-" type="github">
  <diagram name="Pagina-1" id="vrp-BLg1DrBL_UtZDKUx">
    <mxGraphModel>
      <root>
        <mxCell id="0" />
        <mxCell id="1" parent="0" />
      </root>
    </mxGraphModel>
  </diagram>
</mxfile>
